<svg xmlns="http://www.w3.org/2000/svg" width="1200" height="1200" shape-rendering="geometricPrecision" image-rendering="optimizeQuality" fill-rule="evenodd" xmlns:v="https://vecta.io/nano"><path d="M0 0h1200v1200H0z" fill="#fff" fill-opacity="0" pointer-events="none"/><g transform="matrix(5.999999 0 0 5.999999 -3311.999633 23.999982)" fill="#2b324c"><path d="M651.988-4.012c55.2 0 100 44.8 100 100s-44.8 100-100 100-100-44.8-100-100 44.8-100 100-100z"/><path d="M599.981 54.908h0" paint-order="fill"/></g><path d="M196.152 239.507c-14.945 0-27.105-12.156-27.105-27.101s12.159-27.105 27.105-27.105 27.101 12.156 27.101 27.105-12.156 27.101-27.101 27.101zm0-39.02c-6.57 0-11.919 5.348-11.919 11.919s5.348 11.915 11.919 11.915 11.915-5.348 11.915-11.915a11.94 11.94 0 0 0-11.915-11.919zM396.186 189.3l-30.405-3.998v-17.264c0-8.536-6.946-15.482-15.486-15.482H109.451c-8.54 0-15.486 6.946-15.486 15.482V288.19v37.63c0 7.364 5.174 13.516 12.07 15.077 1.331.55 2.724 1.001 4.229 1.199l261.327 34.343a17.19 17.19 0 0 0 2.236.148c8.042 0 14.87-5.75 15.877-13.381l20.561-156.449c1.103-8.464-5.217-16.296-14.079-17.458zm-287.032-21.262c0-.168.125-.296.296-.296h240.845c.165 0 .296.128.296.296v15.271 15.321 39.544l-47.52-31.985c-2.753-1.841-6.389-1.703-8.984.369l-99.431 79.39L152.4 250.85c-2.615-2.17-6.35-2.345-9.139-.428l-34.106 23.33V168.037zm0 124.115l37.946-25.962 42.607 35.391a7.59 7.59 0 0 0 4.854 1.752c1.68 0 3.353-.553 4.739-1.66l99.908-79.776 51.383 34.587v69.336c0 .168-.132.296-.296.296H109.451c-.171 0-.296-.128-.296-.296v-33.668zm265.529 68.96c-.046.056-.323.29-.86.29l-152.948-20.096h129.42c8.54 0 15.486-6.942 15.486-15.486V200.625l28.432 3.738c.629.079.948.425.991.425l-20.521 156.324z" transform="scale(2.4)" fill="#ff8a87"/></svg>