<svg xmlns="http://www.w3.org/2000/svg" width="1200" height="1200" xmlns:v="https://vecta.io/nano"><path d="M0 0h1200v1200H0z" fill="#fff" fill-opacity="0" pointer-events="none"/><path d="M599.146-.854c331.2 0 600 268.8 600 600s-268.8 600-600 600-600-268.8-600-600 268.8-600 600-600z" fill="#ff8a87"/><g fill="#2b324c" stroke="#2b324c" stroke-width="6.245"><path d="M950.13 407.615v36.064 86.414 105.071 92.191 46.759 1.093 1.717l-.234 4.918-.234 2.108c-.312 2.966.468-2.42.078-.468-1.093 5.933-2.732 11.475-4.684 17.174-.703 1.952 1.405-2.732.39-.859-.39.781-.703 1.561-1.093 2.342l-1.873 3.669c-1.483 2.654-3.122 5.308-4.918 7.806-.234.312-1.015 1.639-1.171 1.639.078 0 2.42-2.966.546-.781-.859 1.015-1.717 2.108-2.654 3.122-2.03 2.264-4.215 4.449-6.557 6.401-.468.39-2.498 2.654-3.122 2.654.078 0 3.122-2.264.703-.546l-1.639 1.171c-2.498 1.717-5.152 3.357-7.884 4.84l-3.669 1.873c-.312.156-1.717.937-1.873.859.468.156 3.044-1.171.859-.39-2.966 1.093-5.855 2.108-8.899 2.888-1.249.312-7.338 2.498-8.275 1.717.39.312 3.357-.39.937-.156l-2.108.234a62.61 62.61 0 0 1-5.464.234c-8.977.156-17.876 0-26.853 0h-67.835-94.767-105.539-101.09-81.418-45.666-4.059-.781-2.264c-1.483 0-2.888-.156-4.371-.234l-2.108-.234c-3.747-.312 3.591.703-.078 0-2.81-.546-5.542-1.093-8.275-1.795-1.327-.39-2.654-.781-3.981-1.249-.859-.312-4.449-1.015-4.84-1.795 0 .078 3.591 1.639.859.312-.624-.312-1.249-.546-1.873-.859l-3.669-1.873c-2.654-1.483-5.308-3.122-7.806-4.918-.312-.234-1.561-1.015-1.639-1.171.156.624 2.42 1.952.781.546-1.015-.859-2.108-1.717-3.122-2.654-2.264-2.03-4.449-4.215-6.401-6.557-.468-.546-2.654-2.498-2.654-3.122 0 .624 1.873 2.498.546.703l-1.171-1.639c-1.717-2.498-3.357-5.152-4.84-7.884l-1.873-3.669s-.937-1.717-.859-1.873c-.156.468 1.171 2.966.39.859-1.093-2.966-2.108-5.855-2.888-8.899-.39-1.327-.703-2.732-.937-4.137-.156-.703-.312-1.405-.39-2.108-.078-.312-.703-3.825-.234-1.093.468 2.498-.156-2.108-.234-2.732-.156-1.639-.156-3.279-.234-4.918v-3.122-15.534-67.289-97.265-105.383-91.566-55.97-7.572l-15.612 15.612h53.082H459.28h154.015 132.392c21.467 0 43.09.703 64.557 0h.859l-15.612-15.612v18.11 48.164 68.148 78.686 79.935 70.724 52.301 24.355c-.156 11.397.937 22.794 3.669 33.801 6.713 27.712 24.667 51.442 52.535 60.263 8.431 2.654 17.564 3.747 26.385 3.825 8.196.078 16.003-7.26 15.612-15.612-.39-8.587-6.869-15.456-15.612-15.612-2.03 0-3.981-.078-6.011-.234l-2.888-.234c-2.654-.234 1.171.156 1.405.234-.546-.156-1.249-.156-1.795-.312-3.513-.624-6.947-1.483-10.382-2.654-.781-.234-1.483-.624-2.264-.859-1.561-.468 2.03.937 1.873.859-.39-.234-1.015-.39-1.405-.624-1.483-.703-2.966-1.483-4.371-2.264a49.17 49.17 0 0 1-3.747-2.342c-.624-.39-1.171-.859-1.795-1.249-1.327-.859 1.952 1.561 1.717 1.327-.39-.39-.937-.781-1.327-1.093-2.186-1.873-4.215-3.903-6.089-6.089l-1.327-1.561c-1.639-1.873 2.186 3.044.781 1.015-.859-1.249-1.795-2.498-2.654-3.825-1.483-2.342-2.732-4.684-3.981-7.182l-.937-2.03c-1.093-2.342.234.312.546 1.405-.39-1.249-1.015-2.576-1.483-3.825-1.639-4.762-2.966-9.602-3.903-14.519-.234-1.171-.39-2.264-.624-3.435l-.234-1.561c-.468-2.732.468 3.981.234 1.952l-.624-5.855c-.312-3.669-.312-7.338-.234-11.007v-18.735-47.774-67.523-77.827V483.1v-70.489-52.848-25.76-1.093c0-8.431-7.182-15.612-15.612-15.612h-53.082-126.694-154.015-132.392c-21.467 0-43.09-.468-64.557 0h-.859c-8.431 0-15.612 7.182-15.612 15.612v31.146 78.374 102.495 104.836 83.916 40.982c0 18.188 4.762 36.377 14.597 51.755 14.363 22.482 38.094 39.031 64.635 43.09 12.646 1.952 25.526 1.405 38.25 1.405h66.196 93.908 106.476 102.729 82.979 47.149c4.918 0 9.758 0 14.597-.546 28.18-3.279 52.613-17.486 69.162-40.592 11.319-15.846 16.861-35.518 16.861-54.955v-15.144-73.378-103.431-100.387-65.337-9.133c0-8.196-7.182-16.003-15.612-15.612-8.353 0-15.534 6.479-15.534 15.222h0z"/><path d="M870.742 408.63v37.938 90.707 109.598 95.079 45.978.624c0 8.196 7.182 16.003 15.612 15.612s15.612-6.869 15.612-15.612v-37.938-90.707-109.598-95.079-45.978-.624c0-8.196-7.182-16.003-15.612-15.612-8.509.39-15.612 6.869-15.612 15.612h0zM352.18 463.038h38.328 91.956 111.237 96.094 46.603.703c8.196 0 16.003-7.182 15.612-15.612s-6.869-15.612-15.612-15.612h-38.328-91.956H495.58h-96.094c-15.534 0-31.068-.39-46.603 0h-.703c-8.196 0-16.003 7.182-15.612 15.612.39 8.509 6.869 15.612 15.612 15.612h0zm384.842 64.011h-38.328-91.956H495.5h-96.094c-15.534 0-31.068-.39-46.603 0h-.703c-8.196 0-16.003 7.182-15.612 15.612s6.869 15.612 15.612 15.612h38.328 91.956 111.237 96.094 46.603.703c8.196 0 16.003-7.182 15.612-15.612s-6.869-15.612-15.612-15.612h0zM352.18 653.508h81.106H561.54h29.507c8.196 0 16.003-7.182 15.612-15.612s-6.869-15.612-15.612-15.612h-81.106-128.255-29.507c-8.196 0-16.003 7.182-15.612 15.612.39 8.509 6.869 15.612 15.612 15.612h0zm238.868 64.089h-81.106-128.255-29.507c-8.196 0-16.003 7.182-15.612 15.612s6.869 15.612 15.612 15.612h81.106H561.54h29.507c8.196 0 16.003-7.182 15.612-15.612-.39-8.509-6.869-15.612-15.612-15.612h0z" paint-order="fill"/></g></svg>